<svg xmlns="http://www.w3.org/2000/svg" fill="none" viewBox="0 0 600 600"><g fill="#3448C5" clip-path="url(#devicon-cloudinary-1-a)"><path d="M192.6 278.4c6.4 0 12.4 3 16.3 8a1 1 0 0 0 1.2.2l6.9-5.5a1 1 0 0 0 .1-1.2c-6-7.6-15-12.1-24.7-12.1-18 0-32.4 15.4-32.4 34.3 0 19 14.5 34.4 32.4 34.4a31 31 0 0 0 24.7-12.1 1 1 0 0 0-.2-1.2l-6.8-5.4a1 1 0 0 0-1.2.1c-3.9 5-9.9 8-16.3 8-12.2 0-21.7-10.4-21.7-23.7s9.5-23.8 21.7-23.8m33.3-12.6h8.6q.8 0 .9.9v68.1q0 .8-.9.8H226a1 1 0 0 1-.8-.8v-68.1a1 1 0 0 1 .7-.9m38.8 23.6c-11.4 0-23 8-23 23.5 0 13.5 9.9 23.7 23 23.7a23 23 0 0 0 23-23.7c0-13.6-10-23.5-23-23.5m12.6 23.5c0 7.8-5.4 13.7-12.6 13.7s-12.6-6-12.6-13.7c0-7.9 5.4-13.5 12.6-13.5 7 0 12.6 5.8 12.6 13.5m56.7-22.5h-8.6a1 1 0 0 0-.9.8V314c0 8.9-6.1 12-11.4 12-4.6 0-9.3-3.5-9.3-11.3v-23.5a1 1 0 0 0-.9-.8h-8.6q-.7 0-.8.8v24.6c0 13.5 6 21 17.2 21 4 0 10.5-2.4 13-7.5l.8.2v5.3q0 .8.9.8h8.6q.7 0 .8-.8v-43.6a1 1 0 0 0-.8-.8m52.7-24.6h-8.6a1 1 0 0 0-.8.9V297l-.5-.8c-2.7-4.2-8.3-7-14.4-7-10.5 0-21.1 8.1-21.1 23.6 0 13.5 9.1 23.7 21.2 23.7 4.6 0 11.1-1.9 14.3-7l.5-.9v6.1a1 1 0 0 0 .8.8h8.6a1 1 0 0 0 .9-.8v-68.1a1 1 0 0 0-.7-.9zm-9.6 47a13 13 0 0 1-12.9 13.7c-7 0-12.5-6-12.5-13.6 0-7.7 5.5-13.5 12.5-13.5 7.3.2 13 6.2 12.9 13.5m22.5-22.4h8.6q.8 0 .8.8v43.6q0 .8-.8.8h-8.6a1 1 0 0 1-.9-.8v-43.6q0-.8.9-.8m4.6-23.2h-.3a6.7 6.7 0 1 0 0 13.4 6.6 6.6 0 0 0 6.8-6.7 6.6 6.6 0 0 0-6.5-6.7m40.2 22.2c-3.7 0-10.4 2-13 7.4l-.8-.2v-5.4a1 1 0 0 0-.9-.8h-8.6q-.7 0-.8.8v43.6a1 1 0 0 0 .8.8h8.6q.8 0 .9-.8V312c0-8.8 6.1-12 11.4-12 4.6 0 9.3 3.5 9.3 11.3v23.5q0 .8.9.8h8.6q.8 0 .9-.8v-24.6c0-13.4-6.2-20.8-17.3-20.8m68.6 1h-8.6a1 1 0 0 0-.9.8v6l-.5-.8c-2.6-4.3-8.2-7-14.4-7-10.5 0-21.1 8.1-21.1 23.6 0 13.5 9.1 23.7 21.2 23.7 4.6 0 11.1-1.9 14.3-7l.5-1v6.1q.1.8.8.8h8.6a1 1 0 0 0 .9-.8v-43.6q-.1-.7-.8-.8m-9.6 22.5a13 13 0 0 1-13 13.6c-7 0-12.5-6-12.5-13.6 0-7.7 5.5-13.5 12.5-13.5 7.3.2 13 6.2 13 13.5m48.8-22.4q-3-1.2-6.2-1.2-8.7 0-12 10l-.8-.2v-7.9a1 1 0 0 0-.8-.8h-8.6a1 1 0 0 0-.9.8v43.6q0 .8.9.8h8.7a1 1 0 0 0 .8-.8v-16.9l.1-1v-1l.1-1 .5-3.3.1-.8q.9-4 2.4-6.4l.2-.4 1.4-1.8.3-.2.8-.7.3-.2.4-.3.3-.2.4-.1.3-.2.3-.1h.1l.3-.2.3-.1h.3l.3-.2h.6l.3-.1h1.3q2.4 0 4.7.8l.5.2h.7q.4-.2.4-.6l1.7-8.5q.1-.6-.4-1zm47.7.2-.8-.3H590q-.6 0-.8.5l-11.2 29-11.3-29a1 1 0 0 0-.8-.5h-9.4q-.5 0-.7.3-.3.5-.1.8l16.8 41.3-9.3 24a1 1 0 0 0 .8 1.3h9q.6 0 .8-.6l26.2-66v-.7m-557.5-6.3h.3L56 298a.4.4 0 0 1-.3.7h-3.4q-.4 0-.4.4v30q0 3 2.1 5l2 2a.4.4 0 0 1-.3.7H40.1c-4 0-7.2-3.2-7.2-7.2V299q0-.3-.4-.4h-3.4a.4.4 0 0 1-.3-.7l13.4-13.3zm29.5 7.7.2.1 13.4 13.3a.4.4 0 0 1-.3.7h-3.4q-.4 0-.4.4V329q0 3 2 5l2 2a.4.4 0 0 1-.2.7H69.6c-4 0-7.2-3.2-7.2-7.2v-22.8q0-.4-.4-.4h-3.4a.4.4 0 0 1-.3-.7l13.4-13.3zm29.4 7.6q.2 0 .3.2l13.4 13.3a.4.4 0 0 1-.3.7h-3.4q-.4 0-.4.4V329q0 3 2 5l2 2a.4.4 0 0 1-.2.7H99c-4 0-7.2-3.2-7.2-7.2v-15.1q0-.4-.4-.4H88a.4.4 0 0 1-.3-.7l13.4-13.3zM71.7 242c21 .2 39.4 13.8 45.8 33.7a31.4 31.4 0 0 1 27.4 31c0 13-8.1 23.7-21.2 28.2l-.5.1-.6.2v-9.6a20 20 0 0 0 13.2-19 22 22 0 0 0-21.4-22h-4l-.9-3.5a39 39 0 0 0-37.8-30 39 39 0 0 0-34.9 21.6l-1.3 2.8-2.5.2a26.7 26.7 0 0 0-11.6 49.2l.4.2v10.2l-1-.4a35.9 35.9 0 0 1 8.7-67.8 48 48 0 0 1 42.2-25"/></g><defs><clipPath id="devicon-cloudinary-1-a"><path fill="#fff" d="M0 0h600v600H0z"/></clipPath></defs></svg>