<svg xmlns="http://www.w3.org/2000/svg" width="600" height="612" viewBox="0 0 450 459"><path d="M210 26.7c-36.8 3-42.9 4.2-60.3 12.3-17.2 7.9-32.2 18.2-46.1 31.8-21 20.4-35 45.7-44.2 79.7-2 7.4-3.8 67.7-3.9 126 0 37.1.1 39.4 2.2 48.1 2.8 11.3 3 18.5.6 20.6-1 .9-6.5 4.3-12.2 7.7s-12.1 7.5-14.3 9.2c-7.5 6-8.6 12.2-3.8 20.4 1.9 3.2 3 6.4 3 8.9 0 3.5.7 4.6 5.2 9.1 9.1 8.7 19.7 17.4 23.7 19.4 2.5 1.3 4.3 3.2 5.1 5.3 2.2 5.5 4.9 7.8 9.1 7.8 2 0 11.1-2.5 20-5.5 23.8-8.1 43.5-12.7 77.9-18.4 58.4-9.6 69.1-10.7 116.4-12.2 48.8-1.5 101.8-.8 111.1 1.5 12.6 3.2 15.7 3.2 19.2.2 6.4-5.4 5.6-13-2.7-27.7-4.3-7.7-7-11.2-10.1-13.4-3.2-2.3-6.4-6.6-12.7-17l-8.4-14 .4-14.6c.5-16.8 1.1-18.6 8-21.7 5.6-2.5 14.4-9.5 16.8-13.4 1-1.6 2.6-7.3 3.5-12.7 1-5.3 3.8-15.5 6.4-22.6l4.6-13-.1-15c-.2-40.1-19.3-100.1-42.5-133.5-8-11.5-25.7-30-32.7-34-2.4-1.4-7.1-4.5-10.4-6.9-7.6-5.4-10.1-6.1-20.8-6.1-10 0-18.3 1.9-25.9 6-7 3.8-9.9 3.8-16.3-.4-18.6-11.8-33.6-14.5-65.8-11.9M235 52c7.7 1.7 11.2 2 18.5 1.5 8-.5 9.4-.3 12.3 1.4 6.2 3.9 7.5 2.5-27.9 31.7-15.2 12.6-36.1 33.1-48.8 47.9-4.7 5.5-12 13.8-16.1 18.5-23.1 25.9-26 30-27.9 40.5-1.4 7.4-1.4 16.5 0 20.2.5 1.5 3.6 5.5 6.8 8.8s7.3 8.2 9.2 11c11.1 16.5 36.4 33.2 66.5 43.8 14.4 5.1 43.2 12.1 62.4 15.2 13.9 2.3 20.7 2.8 43.3 3.2 25.3.5 26.8.7 27.8 2.5 1.5 2.8.8 23.3-.9 25-1 1-13 1.3-58 1.5-35.9.1-58.9.5-62.7 1.2-3.3.6-8.7 1.1-12 1.1s-7.6.5-9.5 1.1c-3.8 1.1-22.6 2.3-62.5 3.9-24.3.9-34.2 1.8-45.4 4-7.3 1.4-7.1 1.4-7.1-2.4 0-2.6-.9-4.4-3.5-7.2-3.6-3.8-4.5-7.7-2.5-11.4.6-1 3.7-4 7-6.5 8.6-6.6 10.9-11.6 7-15.5-2.3-2.3-9.3-2.7-13.5-.8-3.4 1.5-4.3.5-6-6.8-2.3-9.7-2.1-10.8 2.7-13 4-1.8 18.2-11.7 24.1-16.8 2-1.7 2.7-3.3 2.7-5.8 0-5.2-2.8-7.2-10-7.3-5.3 0-6.4.4-12.9 4.9-7.7 5.2-10.1 5.4-10.1.8 0-4.4 9.1-12.1 24.7-20.9 9.5-5.2 11.2-8.5 6.8-12.8-4.4-4.5-12.1-3.2-22.6 3.9-6.3 4.2-7.9 4.5-7.9 1.2 0-3 3-5.4 16.5-13.1 12.6-7.3 13.5-8 13.5-12.1 0-6.9-8.4-9-20-5-6.2 2.2-7.6 2.4-8.7 1.3-1.7-1.6-.5-5.3 2.4-8 1.1-1 8-5 15.4-9.1 15.1-8.2 18.1-11.3 15.9-16.5-1.2-3.1-4.6-5.1-8.6-5.1-1.4 0-6.3 1.6-11 3.6-4.6 2-9.1 3.4-9.9 3-2.4-.9-1.9-11.8 1.1-23.2 3.1-12 10.7-31.7 15.9-41 2.3-4.2 6.8-9.9 11.4-14.4 6.9-6.8 9.2-8.3 24.1-15.7 16.3-8.1 28.3-12.3 40.5-14.3 10.4-1.6 36.7-.5 47.5 2m99.6 15c3.2 1.9 10.4 8 15.9 13.5 15.4 15.4 25.5 33.9 36.3 66 7.8 23.1 12.2 45.2 13.5 67.5l1 18.5-3.1 12.5c-1.8 6.9-4.1 13.6-5.1 15-3.5 4.8-27.9 11-43.3 11H339l-.5-2.8c-.4-1.5-.8-3.6-1-4.8-.7-3.4-4.5-7.4-7-7.4-2.7 0-3.7 1.1-7.3 8.1-2.4 4.9-3.1 5.4-6.3 5.7-5.3.4-6.5-1.6-4.1-6.5 3.5-6.8 3.7-9.9.8-12.8-1.4-1.4-3.2-2.5-4-2.5-1.7 0-9.6 6.2-14.5 11.4-3.5 3.6-6.1 4.6-6.1 2.3 0-.6 1.8-3.9 4-7.1 2.2-3.3 4.3-7 4.7-8.3.8-3.5-1.2-7.1-4.3-7.9-4-1-8.7 1.9-17.8 10.8-8.1 8-9.5 8.8-11.5 6.4-.9-1.1-.3-2.7 2.8-7.6 5.6-8.6 6.7-12.4 4.7-15.5-1.2-1.8-2.6-2.5-4.8-2.5-2.6 0-4.7 1.6-12.7 9.5-5.7 5.6-10.5 9.5-11.7 9.5-1.1 0-8-2.2-15.4-4.8-7.4-2.7-18.7-6.6-25-8.8l-11.5-3.8-11.1-11.1c-6-6-11.8-12.6-12.7-14.7-2-4.2-2.2-13.6-.4-15.9 5.4-7.1 55.3-60.4 66.3-70.8 18.7-17.7 51.6-43.2 62.6-48.5 17.6-8.4 29.3-9.5 39.4-3.6m42.3 291c3.9 6.6 7.1 12.4 7.1 12.9s-.7 1.2-1.6 1.5c-2.3.9-77.7.7-79-.2-.7-.4-2.4-3.3-4-6.5-3.1-6.7-6-8.7-9.9-6.9-2.8 1.3-4.5 4.8-4.5 9.1s-1.9 5.2-10.2 4.9l-7.3-.3-.7-5.7c-1.1-8.7-4.7-12.9-9.7-11.3-2.1.6-4.5 5.9-5.6 12.3-1 6-2.7 7.4-8.9 7l-5.1-.3-1.2-5.4c-1.5-6.9-3.3-8.9-6.7-7.3-1.5.7-2.8 2.3-3.2 3.9-2.2 9.7-2.4 10.1-5.8 11.3-6.2 2-14.9 3-16.3 1.9-.8-.7-1.3-3.3-1.3-6.8 0-3.4-.8-7.3-2-9.9-1.6-3.6-2.3-4.2-4.9-4.2s-3.4.7-5.2 4.2c-1.3 2.5-2.4 6.9-2.7 10.8-.2 3.6-.9 7.3-1.4 8.2-1.1 2.3-6.6 2.4-7.5.2-.8-2.2 1.6-23.5 2.8-25 1.5-1.8 14.9-3.3 39.9-4.4 12.4-.6 30.2-1.7 39.5-2.5 10.8-1 32.2-1.6 58.5-1.8 36.5-.2 41.9-.4 44.5-1.9 1.9-1 3.4-1.3 4.1-.7.7.5 4.4 6.3 8.3 12.9m-232-1.1c1.1.7 1.1 2.6.2 11-.6 5.6-1.1 12.4-1.1 15 0 5.7-1.2 7.1-7 7.8-7.4 1-8.1-1.3-5.8-20.8 1.3-11.8 2.6-13.9 8.6-13.9 2 0 4.3.4 5.1.9m21.4 3.2c-1.1 17.8-1.9 23.4-3.3 23.4-3.4 0-3.7-20.3-.4-25.3 2.1-3.2 3.9-2.2 3.7 1.9m-53.8 16.6c-.4 9.8-1.1 18.5-1.5 19.3-.5.8-4.8 2.8-9.7 4.4-4.8 1.5-12.7 4.6-17.5 6.8s-9.4 3.8-10.2 3.5-2.3-2.3-3.3-4.4c-2.3-4.9-9-11.4-17.8-17.2-7.2-4.8-8.6-7-6.3-9.8 1.4-1.7 19.3-13.9 24.8-16.9 3.5-1.9 3.8-1.9 37.3-3.2l4.9-.2z"/><path d="M302.3 81.2c-2.3 1.3-8.3 5.9-13.3 10.2-8.1 7.1-9.1 8.3-8.8 10.9.4 3.6 2.6 5.2 5.9 4.4 1.3-.4 6-2.7 10.4-5.3 13.8-8 13.5-7.9 16.4-6.3 1.3.8 5.1 5.2 8.4 9.8 6.2 8.7 9.6 11.1 15.7 11.1 3.6 0 7-3.1 7-6.4 0-2.3-11-18.1-17.4-24.9-5.6-6-16.7-7.6-24.3-3.5M205.4 169.4c-6.1 2.8-13.1 9.8-14.3 14.3-1.2 4.2 1.9 20.5 4.6 24.1 3 4 9.3 5.7 15.8 4.3 9.2-2.1 15.7-8.9 17.1-17.8.7-4.8-1-16.3-3.2-20.8-3.1-6.6-11.1-8.2-20-4.1m7.1 18.6c0 3.6-2.9 3.3-3.3-.3-.3-2.3 0-2.8 1.5-2.5 1.2.2 1.8 1.2 1.8 2.8M78 365.8c-7.7 3.9-12.3 15.9-8.6 23 2.2 4.3 4.9 5.5 10.5 4.7 11.7-1.8 15.6-8.8 11.5-20.9-2.4-7-7.6-9.7-13.4-6.8"/></svg>