<svg xmlns="http://www.w3.org/2000/svg" width="528" height="276" viewBox="0 0 396 207"><path d="M182.3 2.2c-.5.7-1.7 3.9-2.7 7.2-1.3 4.2-3 7-6.2 10.3-4.7 4.7-11.7 18.7-17.6 35.3-3.3 9.3-26.6 56.4-33 66.9-2.8 4.5-4.2 7.9-4.3 10.7-.3 5.2-9.3 23.9-17.3 36-7.9 11.7-19.8 23.2-28.5 27.3-6.5 3.1-6.7 3.1-9.9 1.5-5.7-3-8.9-5.7-13.5-11.8-4.3-5.8-7.8-12.5-6.9-13.3.2-.3 4.4 1.1 9.3 3.1 15 6 17.5 6.4 22.8 3.8 6.9-3.4 13-9.5 15.5-15.7 3-7.5 2.4-14.2-2.1-23.2-2.9-5.7-4.2-7.3-8.7-10-6.9-4-16.2-5.7-28.4-5.1-11.6.6-16.5 2.7-23.9 9.9-13.1 12.8-15.2 28.1-6.3 45.8C28.7 197 46.7 206 71.1 206c15.8 0 27.9-4.9 38.4-15.6 8.4-8.5 21.9-30.8 25.5-41.9.7-2.2 2.3-4.9 3.4-6 1.2-1.1 3.7-6.3 5.5-11.5s6.2-17.4 9.8-27 9.4-25.6 12.8-35.5c5.4-15.4 14.7-38.9 23.5-59.4 2.3-5.2 2.3-5.4.5-6.7-2.3-1.7-6.9-1.8-8.2-.2m2.1 3.5c-1 3.9-4 9.7-5.9 11.3-1.3 1.1-1.2.6.3-2.1 1.1-1.9 2.5-5.3 3.2-7.7 1.2-4.6 3.5-6 2.4-1.5m5.1-1.7c.5.8-9.6 25.2-10.3 24.6-.1-.2.2-1.6.8-3.2s.7-2.5.2-1.9c-1 1-9.2 22-9.2 23.3.1.4.7-.4 1.5-1.8 1.7-3 2-2.1.3 1.5-.6 1.4-2 2.5-3 2.5-2.8 0-7.8-2.8-7.8-4.4 0-.7 2-5.6 4.5-10.9 3.7-7.9 5.2-10.1 8.3-12.1 5.3-3.3 8.7-7.7 10.7-13.6 1.6-4.9 2.8-6 4-4m-11.4 28.7c-1.2 2-1.4 1.4-.5-1.2.4-.9.9-1.4 1.1-1.1.3.2 0 1.3-.6 2.3m-2.2 6.2c-.6 1.8-1.3 3-1.5 2.8s.1-1.8.7-3.6 1.3-3 1.5-2.8-.1 1.8-.7 3.6M163.7 49c1.4 1.1 3.4 2 4.4 2 2.4 0 2.4 1.2.2 3.9-1.6 1.9-2.2 2-5 1.1-1.8-.7-3.5-2-3.8-3.1-.6-1.9.2-5.9 1.2-5.9.2 0 1.6.9 3 2m-1.1 8.4c4.2 1.8 4.2 1.8 2.1 5.5-3 5.3-5.5 7.9-11.8 12.1-5.6 3.7-5.6 3.7-1.3-5.4 2.3-5 4.6-10.4 5-11.9.3-1.5.9-2.6 1.3-2.4.3.2 2.5 1.1 4.7 2.1m1.6 12.7c-1.8 4.7-8.2 10.6-16.8 15.6-5.6 3.4-5.6 3.4-3.7.1 1-1.8 5-5.6 8.8-8.3 3.9-2.8 8.3-6.5 10-8.3 1.6-1.8 3.1-3.2 3.2-3.2s-.6 1.9-1.5 4.1m-6.8 18.5c-4.2 11.5-8.4 16.5-15.5 18.4-2.4.7-5.8 2-7.5 3.1-1.7 1-3.4 1.9-3.6 1.9-.9 0 8.4-17.4 10.6-19.8 1.1-1.3 4.3-3.6 7.1-5.2 2.7-1.6 6.6-4.2 8.5-5.8 1.9-1.7 3.6-2.9 3.8-2.8.1.2-1.4 4.7-3.4 10.2m-6.9 19.1c-2 4.9-7.9 8.9-14.6 9.8-2.7.4-6.5 1.8-8.5 3.1-3.7 2.5-3.7 2 .1-3.1 2.3-3.1 10.9-8 15.7-9 1.5-.3 4-1.6 5.5-2.9s2.9-2.3 3.1-2.1c.2.1-.4 2-1.3 4.2m-4.8 12.7c-1.2 3-2.5 5.2-2.9 5-.4-.3-.5.1-.2.9.2.7 0 2.5-.5 3.9-1.4 3.6-7.2 4.4-12.8 1.7s-6.4-5.4-2.7-8.5c2.9-2.4 8.2-4.3 11.9-4.4 1.1-.1 3.6-.9 5.5-2s3.6-1.9 3.7-2c0 0-.8 2.4-2 5.4m-97.5 8.3c-4.4 2.1-12.9 9.9-12 10.8.4.5 2.6-1.1 4.9-3.3 2.2-2.3 6.5-5.3 9.5-6.8 4.9-2.4 6.3-2.6 12.4-2.1 7.4.6 15 3.4 18.8 7 3.2 3 7.1 10.8 8.1 16.4 1.8 9.2-3.8 19.9-13.1 25.3-6.3 3.6-8.4 3.7-14.4.9-5.5-2.6-7.4-6-7.4-13.2 0-4.7.4-6 2.9-8.6 3.6-3.8 8.9-4.3 12.2-1 2.9 2.9 2.1 5.2-2.4 6.2-7.9 1.9-8.3 8.6-.6 10.7 5 1.4 7.5.6 11.7-3.4 4.7-4.3 6.2-7.7 6.2-13.6 0-9.8-5.1-16.3-14.2-18.2-6.6-1.4-11.2-.4-17.7 4-7.9 5.3-12.3 14.8-12.5 27.2-.1 8.9 2.2 14.1 10.2 23 11.4 12.7 26.9 15.9 43.2 8.9 2.9-1.2 3.8-1.4 2.6-.4-3 2.3-13.7 5.5-20.7 6.1-8 .8-19.8-1-25.2-3.8-5.2-2.6-14.4-11.9-18-18.1-5.7-9.7-6.8-20.4-3-30 .9-2.1 1.3-4 1-4.3-1-1-3.5 5-4.5 10.6-2.1 11.3 2.2 22.9 12.6 34.1 6.4 6.9 6.4 6.9 2.5 5.3-2.1-.9-4.2-2.1-4.8-2.6-.7-.8-.5-.9.5-.4.8.4.6.1-.4-.8-1-.8-2.3-1.3-2.9-.9-.6.3-.7.2-.4-.4.3-.5-.9-1.7-2.6-2.6C24 187 18.2 175 17.3 162.5c-.7-9.3 2-16.4 8.8-24 7.6-8.2 13.3-11.3 21.4-11.4 4-.1 4-.1.7 1.6m82.3 5.7c2.2.8 5.4 1.2 7.2.9 3.3-.6 3.3-.6 1.9 2.8-1.7 4-4.6 4.7-11.3 2.8-6.6-1.8-9.8-7-7.7-12.4.6-1.3 1.1-1.1 3.3 1.5 1.4 1.7 4.4 3.7 6.6 4.4m-54.9 4.9c7 3.6 9.8 16.8 5.1 23.8-3.2 4.9-8.7 7.4-13.1 5.9-4.6-1.5-4.5-5.1.3-6.6 5.9-1.9 7.2-6.2 3-10-1-.9-6.2-3.1-11.5-4.9-9.6-3.2-9.6-3.2-6.6-5.4 7.5-5.3 16-6.3 22.8-2.8m54.9 4.2c4.2 1 4.2 1 .7 9.3-1.8 4.5-3.8 8-4.3 7.6-.5-.3-.6.1-.4.8.3.8-.2 2.2-1.1 3.3-.8 1.1-1.2 1.4-.8.6.5-.9.3-1.2-.5-.7-.6.4-.9 1.1-.6 1.6 1 1.6-8.3 14.6-15 20.8-3.6 3.4-8.7 7.3-11.3 8.6-5.2 2.6-16.1 6.1-16.8 5.3-.3-.2 2.1-1.9 5.3-3.7 5.5-3.1 21.8-17.8 20.8-18.8-.2-.3-4 2.9-8.3 6.9-4.4 4.1-11.2 9.3-15.2 11.7-6.1 3.7-7.9 4.3-10.7 3.7-3.4-.6-3.4-.6 2.8-3.7 12.5-6.2 27.2-23.7 37.7-44.6 3.7-7.4 4.8-9 5.4-7.5q.9 1.95.3-.9c-.3-1.4-.2-3.4.1-4.2.5-1.4 1.1-1.4 4.2.6 2 1.2 5.5 2.7 7.7 3.3m-75 4.6c6.7 1.6 7.1 1.9 4.4 3.3-1.3.6-3.4 2.7-4.6 4.5-2.7 4-3.1 12-.9 16.3.8 1.6 1.4 2.8 1.2 2.8-.1 0-2.9-1.1-6.1-2.4-7.1-2.9-8.2-5.1-6.5-12.8 1.3-6.4 4.9-13.7 6.4-13.3.6.2 3.4.9 6.1 1.6"/><path d="M153.6 87.6c-.9 2.4-.2 2.6 1.2.4.7-1.1.8-2 .3-2s-1.2.7-1.5 1.6M151 93.5c-.5 1.4-1.8 4.3-2.9 6.6-1.4 2.8-1.5 3.7-.5 2.9.7-.7 1.4-1.9 1.4-2.7s.4-1.2.9-.9.8-.2.7-1.1c0-1 .4-1.8 1.1-1.8.6 0 1.5-.4 2-.9s.2-.6-.6-.1c-1.1.6-1.3.2-.9-1.9.7-3.3 0-3.4-1.2-.1M136.5 124.1c-.9 1.7-1.5 3.3-1.3 3.5.3.2 1.2-1.2 2.1-3.1 2.1-4.3 1.3-4.7-.8-.4M51.3 200.1c1 .6 4.4 1.2 7.5 1.5 4.7.3 5.1.2 2.2-.5-6.5-1.6-11.7-2.1-9.7-1M119.2 149c0 1.4.2 1.9.5 1.2.2-.6.2-1.8 0-2.5-.3-.6-.5-.1-.5 1.3M119.3 158.5c0 2.2.2 3 .4 1.7.2-1.2.2-3 0-4-.3-.9-.5.1-.4 2.3M118.1 165.6c0 1.1.3 1.4.6.6.3-.7.2-1.6-.1-1.9-.3-.4-.6.2-.5 1.3M114.3 176c-3.7 8.3-2.8 8.2 2.8-.3 2.6-3.9 3.3-5.5 1.9-4.2-2.3 2-2.3 2-1.6-.3 1.3-4.1.1-2.3-3.1 4.8M243.5 28.5c-2.5 2.6-3.5 4.4-3.5 6.7 0 4.3 4.1 9.3 9.4 11.3 4.2 1.6 4.5 1.6 8.4-.4 8.8-4.5 10.6-11.3 4.7-17.4-3.3-3.4-4-3.7-9.5-3.7s-6.2.3-9.5 3.5m15.1 1.1c.9 1.1 1.3 1.2.9.4s.3-.4 1.4.9c2.7 3 2.6 5.7-.1 9.7-3.7 5.3-9.6 5.9-14.6 1.4-4.1-3.5-4.6-8.6-1.4-11.8 3.4-3.4 11.2-3.8 13.8-.6M372.9 27.9c-2.4 2.5-2.9 3.8-2.9 7.8 0 4.1.5 5.4 2.8 7.5 4.4 4 8.6 5.3 12.5 3.8 9.4-3.8 11.9-13.4 5-19.8-1.9-1.8-3.6-2.2-8.4-2.2-5.4 0-6.4.3-9 2.9m13.3.5c-.3.5.2.6 1.2.3.9-.4 1.5-.3 1.3.1-.5.8 1.8 3.3 2.5 2.7.2-.2.5 1.2.6 3.1.2 3-.3 4.2-3.3 7-4.3 4-8.2 4.4-12.5 1.2-2.7-1.9-3-2.8-3-7.4 0-3.1.5-5.6 1.2-6 2.9-1.8 13.1-2.6 12-1M309.1 57.5c-1.8.8-4.2 1.5-5.2 1.5-2.9 0-13.3 6.6-16.9 10.7-1.8 2-4.4 6.2-5.7 9.3-1.3 3-2.8 6.3-3.4 7.2-.5 1-.9 6.5-.9 12.2 0 9.2.3 11.2 2.9 17.6 6.5 15.9 20.2 25 37.9 25 15.7 0 29.6-8.2 36.6-21.5 1.4-2.7 2.6-6 2.6-7.2s.5-2.5 1-2.8c.6-.3 1-4.7 1-9.8-.1-21.6-11.3-36.7-31-41.9-7.9-2.1-14.4-2.2-18.9-.3m15.9 2c1.4.1 2.6.3 2.8.4.1.1.5.1.8 0 .4 0 1 .5 1.4 1.2.4.6 2.3 1.3 4.1 1.4 1.8.2 3.8 1.1 4.5 2 .8 1 1.8 1.4 2.5.9.9-.5 1-.2.6.9s-.2 1.4.9 1c.7-.3 1.4 0 1.4.5 0 .6 1.2 2.3 2.8 3.9 1.5 1.5 2.6 3.1 2.5 3.5-.2.4.6 1.2 1.7 1.8 1.4.8 1.9 1.9 1.6 4-.2 1.6 0 2.7.5 2.5.4-.3 1-.1 1.4.5.3.5.1 1-.5 1-.7 0-.5.7.4 1.6.9.8 1.6 2.5 1.7 3.7.5 11.1.3 16.7-.7 19.4-.7 1.7-1 3.4-.7 3.6.3.3-.7 2.3-2.1 4.4-1.4 2-2.6 4.3-2.6 5s-.5 1.3-1.1 1.3c-.5 0-.7-.5-.3-1.2s.3-.8-.5-.4c-.6.4-.9 1.1-.6 1.6.7 1.1-2.5 5-4 5-.6 0-2.3 1.4-3.8 3.1s-2.7 2.8-2.7 2.4-1.1 0-2.5.9-2.5 1.4-2.5 1.2c0-.3-1.5.1-3.2.8-2.2.9-6.5 1.2-12.8 1-11.4-.5-12-.5-11.4-1.5.2-.4-1-1-2.7-1.4-1.8-.4-4.8-1.9-6.9-3.3-4-2.9-11.7-11.9-11.2-13.3.1-.5-.3-.9-1-.9-.6 0-.9-.3-.5-.6.3-.4-.1-2.1-1.1-3.8-2.5-4.7-2.4-23.4.2-30.1 1.1-2.8 2.6-5.5 3.3-6.2.8-.6 1.4-1.4 1.3-1.8-.4-1.3 6.1-8.5 7.1-8 .5.4.9 0 .9-.7.1-1.5 6.7-5.1 8.1-4.3.5.4.9.2.9-.3 0-.6 1-.8 2.3-.5 1.7.4 1.9.2.8-.5-1.5-1.1-1.3-1.1 7.9-2.6 1.4-.2 3.9-.1 5.5.1 1.7.2 4.1.6 5.5.8"/><path d="M311.1 74.4c-.7.9-2.2 1.6-3.1 1.6-1 0-2.8 1.5-4 3.4-1.1 1.9-2.5 3.6-3 3.8s-1.5 3.9-2.3 8.4c-2.3 13 .8 24.5 7.9 29.4 4 2.7 10.3 4 15.4 3.3 3.9-.6 12-6.6 12-8.9 0-.8.4-1.3.8-1 1.6 1 3.4-9.9 3-18-.7-14.4-7.4-22.5-19.3-23.2-4.7-.3-6.4 0-7.4 1.2m13.9 2.4c3 1.2 6.2 4.5 8.6 9.2 2.6 5 2.6 19.9 0 25.5-2.5 5.3-4.1 7-8.8 9.5-5 2.6-9.3 2.5-14.3-.3-8.2-4.7-11.8-14.5-10.1-28.1.8-6.4 5-12.8 10.2-15.7 5.3-2.9 7.4-2.9 14.4-.1M242.4 59c-.3.2-.4 20.6-.4 45.4.2 44.9.2 44.9-2.4 47.4-1.6 1.6-4.1 2.8-6.8 3.1-4.3.6-4.3.6-4.6 5.6-.2 2.7-.1 6.5.3 8.2.6 3.2.7 3.3 6 3.3 7.6 0 16.3-2.5 20.5-5.8 9.6-7.8 10.2-11.9 9.8-65.2-.3-41.5-.3-41.5-11.1-42-6-.3-11.1-.3-11.3 0m19.7 4c1.2 2 1.1 83.7-.2 84.5-.5.4-.7 1.1-.3 1.6.3.5-.2 2.1-1 3.4-.9 1.4-1.2 2.5-.7 2.5s.4 1.1-.2 2.4c-.7 1.3-1.5 2.2-1.9 2-.5-.3-.8.2-.8 1 0 .9-.5 1.6-1.1 1.6-.5 0-.7.5-.3 1.2.4.6.3.8-.3.5-.6-.4-1.6 0-2.3.9-.7.8-1.9 1.3-2.7 1s-1.2-.2-.9.3c1 1.5-4.6 3.1-11.4 3.4-6.5.2-6.5.2-6.8-5.6-.2-3.7.1-5.7.8-5.7.6 0 .9-.4.6-.8-.2-.4.7-.9 2-1 4-.3 6.3-2 8.4-6.1 1.9-3.8 1.9-5.8 1.7-45.4-.1-22.8.1-41.3.6-41 .4.2.7-.3.7-1.1 0-2.1 14.7-1.7 16.1.4M370.7 59.7c-.4.3-.7 18.1-.7 39.4 0 45-1.6 40.2 13.5 39.7 9-.3 9-.3 9.3-40.1C393 59 393 59 382.2 59c-6 0-11.2.3-11.5.7m18.3 2.8c.6.4 1 13.6 1 36.5 0 41.4.8 38.3-10.3 37.8-6.2-.3-6.2-.3-6.5-36.3-.1-19.8 0-36.9.2-38.1.5-1.9 1-2 7.6-1.3 3.8.4 7.4 1.1 8 1.4"/></svg>